<?xml version="1.0" standalone="no"?>
<!DOCTYPE svg PUBLIC "-//W3C//DTD SVG 20010904//EN"
 "http://www.w3.org/TR/2001/REC-SVG-20010904/DTD/svg10.dtd">
<svg version="1.0" xmlns="http://www.w3.org/2000/svg"
 width="512.000000pt" height="512.000000pt" viewBox="0 0 512.000000 512.000000"
 preserveAspectRatio="xMidYMid meet">
<metadata>
Created by potrace 1.11, written by Peter Selinger 2001-2013
</metadata>
<g transform="translate(0.000000,512.000000) scale(0.100000,-0.100000)"
fill="#000000" stroke="none">
<path d="M2524 4889 c-58 -7 -124 -29 -124 -41 0 -4 -6 -8 -13 -8 -13 0 -30
-17 -74 -74 -65 -83 -64 -221 3 -318 27 -39 85 -88 103 -88 6 0 11 -5 11 -11
0 -5 4 -7 10 -4 15 9 57 -41 64 -76 8 -41 8 -1092 0 -1113 -10 -27 -23 -18
-45 32 -12 26 -34 74 -49 107 -36 76 -66 145 -95 215 -12 30 -51 118 -85 195
-34 77 -63 145 -64 150 -2 6 -17 41 -35 79 -18 37 -30 70 -27 73 3 3 -1 12 -9
19 -7 8 -27 50 -44 94 -35 91 -34 100 32 191 85 117 65 284 -45 370 -57 46
-79 56 -144 68 -93 18 -191 -16 -267 -93 -59 -59 -85 -200 -52 -280 8 -20 16
-39 17 -43 4 -20 83 -92 121 -111 45 -22 102 -37 129 -33 9 1 32 -5 51 -13 30
-12 42 -28 82 -112 25 -53 44 -103 41 -111 -3 -8 -2 -12 2 -9 9 5 118 -241
116 -261 -1 -7 1 -11 5 -9 3 2 21 -33 39 -77 19 -45 40 -94 48 -109 8 -16 12
-28 8 -28 -3 0 -2 -6 5 -13 20 -24 133 -292 137 -325 4 -29 3 -32 -13 -23 -10
5 -41 31 -69 58 -28 26 -106 100 -174 163 -223 208 -235 221 -233 230 2 6 -1
9 -6 7 -5 -1 -33 21 -63 48 -150 139 -175 165 -170 170 3 3 -1 5 -8 5 -7 0
-37 26 -67 58 -54 56 -54 58 -49 107 18 160 18 174 2 222 -9 26 -30 63 -46 82
-17 18 -30 36 -30 40 0 13 -124 64 -166 69 -46 5 -164 -17 -164 -30 0 -4 -6
-8 -13 -8 -22 0 -97 -82 -120 -130 -24 -52 -28 -142 -9 -207 7 -23 32 -64 57
-91 74 -82 169 -114 270 -91 126 27 146 25 196 -22 104 -97 304 -284 374 -350
44 -42 96 -91 115 -109 187 -174 300 -285 300 -297 0 -12 -8 -14 -37 -8 -21 4
-42 10 -48 15 -5 4 -39 17 -75 29 -36 12 -74 26 -85 31 -11 4 -47 18 -80 30
-33 13 -69 26 -80 30 -11 5 -47 18 -80 30 -33 12 -69 26 -80 30 -11 4 -47 18
-80 30 -33 12 -69 26 -80 30 -11 4 -47 18 -80 30 -33 12 -69 26 -80 30 -11 4
-47 18 -80 30 -120 43 -154 66 -160 110 0 3 -3 10 -6 15 -4 6 -10 28 -14 50
-3 21 -16 57 -27 79 -23 44 -79 106 -97 106 -6 0 -11 5 -11 10 0 6 -8 10 -18
10 -10 0 -23 5 -30 12 -6 6 -45 11 -94 11 -69 0 -91 -4 -133 -26 -107 -54
-159 -137 -158 -252 1 -124 70 -220 189 -265 99 -37 193 -19 292 55 63 47 96
55 149 34 46 -19 65 -26 128 -49 33 -12 69 -26 80 -30 11 -4 45 -17 75 -28 30
-11 92 -34 138 -51 45 -17 119 -45 165 -62 45 -17 107 -40 137 -51 30 -11 69
-26 85 -33 17 -7 59 -23 95 -35 36 -12 70 -25 75 -30 6 -5 15 -9 20 -10 44
-10 55 -23 55 -70 0 -43 24 -125 47 -159 31 -49 93 -99 138 -112 25 -7 45 -17
45 -22 0 -4 5 -5 10 -2 7 4 10 -205 10 -619 l0 -626 45 0 45 0 0 624 0 625 23
6 c121 33 216 146 217 257 0 20 5 48 11 62 12 25 16 27 199 96 47 18 94 36
105 40 11 4 47 18 80 30 33 12 69 26 80 30 11 4 36 13 55 20 19 7 45 16 58 21
12 5 32 13 45 18 12 5 38 14 57 21 19 7 44 16 55 20 11 4 47 18 80 30 59 22
83 31 128 49 12 5 40 15 62 22 22 7 44 17 50 21 5 4 27 8 49 8 37 0 75 -20
118 -63 8 -8 30 -20 50 -27 20 -8 35 -16 33 -19 -8 -14 118 -11 165 3 95 28
166 92 196 174 30 85 8 215 -48 274 -14 15 -23 28 -20 28 9 0 -59 39 -80 46
-10 4 -18 11 -18 17 0 6 -2 8 -5 5 -3 -3 -27 -1 -52 3 -53 10 -135 -1 -186
-26 -78 -37 -138 -123 -151 -219 -15 -100 -14 -99 -286 -198 -30 -11 -64 -24
-75 -28 -11 -4 -47 -18 -80 -30 -33 -12 -69 -26 -80 -30 -11 -5 -83 -32 -160
-60 -126 -46 -176 -65 -350 -131 -65 -25 -115 -34 -115 -22 0 12 33 46 126
132 38 35 110 102 160 150 188 179 234 221 241 221 5 0 17 12 27 28 10 15 62
66 115 114 53 48 113 103 135 123 44 40 71 44 166 19 38 -10 77 -13 103 -9 45
7 109 26 117 35 3 3 20 16 38 29 31 22 81 88 90 121 3 8 7 47 9 86 4 58 0 81
-17 123 -13 28 -27 51 -33 51 -6 0 -7 3 -4 6 11 11 -75 73 -131 94 -62 24
-124 26 -180 6 -22 -8 -43 -12 -46 -9 -3 4 -6 1 -6 -5 0 -7 -5 -12 -10 -12
-18 0 -86 -68 -106 -105 -10 -19 -22 -35 -27 -35 -4 0 -6 -4 -3 -8 2 -4 0 -29
-5 -54 -8 -36 -7 -61 5 -108 9 -34 16 -73 16 -86 0 -29 -96 -137 -113 -127 -5
3 -7 2 -4 -4 8 -13 -122 -135 -136 -126 -5 3 -7 1 -4 -4 7 -11 -251 -260 -265
-256 -4 2 -8 -2 -8 -8 0 -7 -10 -20 -22 -31 -13 -11 -81 -74 -151 -141 -127
-120 -167 -150 -167 -123 0 12 120 299 183 436 14 30 46 104 72 165 26 60 50
112 53 115 4 3 9 14 10 25 2 11 21 57 43 103 21 46 39 87 39 90 0 14 35 82 42
82 4 0 8 6 8 13 0 27 37 46 110 58 41 6 92 20 113 30 43 23 131 107 134 129 1
8 7 35 13 60 15 59 5 131 -26 193 -30 59 -55 84 -109 113 -130 69 -275 42
-370 -68 -64 -76 -83 -205 -40 -288 14 -26 14 -34 3 -48 -11 -15 -11 -15 3 -4
14 10 18 10 24 -5 5 -10 7 -22 6 -26 -1 -5 3 -6 8 -3 15 10 41 -35 41 -71 0
-18 -11 -56 -24 -85 -13 -29 -38 -87 -56 -128 -47 -109 -99 -229 -122 -280
-29 -63 -86 -194 -112 -260 -69 -166 -139 -310 -152 -310 -11 0 -13 110 -14
563 0 642 -5 608 85 656 154 81 201 255 109 408 -10 18 -23 33 -27 33 -5 0 -5
5 -1 12 4 6 3 8 -3 5 -5 -3 -21 5 -36 19 -14 13 -32 24 -40 24 -7 0 -17 4 -22
9 -19 16 -90 27 -141 20z"/>
<path d="M975 2970 c-3 -6 -17 -10 -31 -10 -13 0 -33 -4 -44 -10 -11 -5 -29
-14 -40 -20 -11 -5 -27 -10 -35 -10 -8 0 -24 -8 -34 -17 -11 -10 -26 -23 -33
-28 -40 -30 -79 -65 -73 -65 4 0 2 -6 -4 -14 -9 -11 -2 -14 36 -20 59 -8 133
-22 196 -36 26 -5 66 -14 90 -19 23 -5 60 -15 82 -21 22 -6 54 -14 70 -17 17
-2 39 -8 50 -13 11 -4 40 -13 65 -20 25 -6 53 -16 62 -21 10 -5 29 -9 43 -9
14 0 25 -4 25 -10 0 -5 13 -10 28 -10 15 0 32 -4 38 -8 5 -5 43 -19 84 -32 41
-13 80 -27 85 -30 6 -4 31 -13 58 -21 26 -7 47 -17 47 -21 0 -4 11 -8 25 -8
14 0 25 -4 25 -10 0 -5 9 -10 20 -10 11 0 28 -4 38 -9 9 -5 31 -14 47 -21 17
-7 38 -16 47 -21 10 -5 25 -9 33 -9 8 0 15 -4 15 -10 0 -5 7 -10 15 -10 8 0
23 -4 33 -9 9 -5 40 -19 67 -31 28 -12 58 -26 67 -31 10 -5 25 -9 33 -9 8 0
15 -4 15 -10 0 -5 6 -10 14 -10 8 0 40 -13 71 -30 31 -16 63 -30 71 -30 7 0
17 -6 21 -12 4 -7 16 -14 26 -14 14 -2 16 3 11 19 -8 25 -106 178 -129 201 -9
9 -13 16 -10 16 4 0 -7 13 -24 29 -16 15 -27 31 -24 35 3 3 -1 6 -10 6 -8 0
-18 8 -21 18 -4 11 -17 25 -31 32 -13 7 -22 17 -19 22 3 4 0 8 -6 8 -15 0 -41
26 -33 34 4 3 -1 6 -10 6 -10 0 -17 5 -17 10 0 6 -5 10 -11 10 -6 0 -16 6 -23
13 -23 22 -77 62 -106 78 -16 9 -27 18 -25 21 3 2 -11 11 -30 18 -19 8 -35 17
-35 22 0 4 -9 8 -20 8 -11 0 -20 5 -20 10 0 6 -9 10 -21 10 -11 0 -17 5 -14
10 3 6 -1 10 -10 10 -8 0 -25 5 -38 12 -47 24 -57 28 -72 28 -8 0 -15 5 -15
10 0 6 -11 10 -24 10 -14 0 -28 5 -31 10 -3 6 -17 10 -30 10 -13 0 -27 5 -30
10 -3 6 -19 10 -34 10 -15 0 -31 4 -37 9 -16 16 -95 23 -296 27 -121 2 -199 0
-203 -6z"/>
<path d="M3740 2970 c-8 -5 -34 -10 -57 -10 -23 0 -45 -4 -48 -10 -3 -5 -19
-10 -34 -10 -15 0 -32 -5 -37 -10 -6 -6 -24 -12 -41 -13 -17 -1 -29 -5 -26 -9
2 -5 -7 -8 -21 -8 -14 0 -26 -4 -26 -10 0 -5 -11 -10 -25 -10 -14 0 -25 -4
-25 -10 0 -5 -9 -10 -20 -10 -11 0 -20 -5 -20 -11 0 -6 -9 -9 -20 -6 -13 3
-20 0 -20 -9 0 -8 -9 -14 -20 -14 -11 0 -20 -4 -20 -10 0 -5 -9 -10 -20 -10
-11 0 -20 -4 -20 -10 0 -5 -7 -10 -15 -10 -8 0 -15 -4 -15 -10 0 -5 -6 -10
-13 -10 -14 0 -100 -59 -105 -72 -2 -5 -9 -8 -16 -8 -6 0 -18 -9 -26 -20 -8
-11 -18 -20 -23 -20 -5 0 -22 -13 -37 -30 -15 -16 -30 -30 -33 -30 -8 0 -96
-92 -127 -131 -14 -18 -31 -38 -38 -46 -7 -7 -10 -13 -5 -13 4 0 3 -4 -2 -8
-14 -9 -115 -162 -115 -173 0 -5 11 -9 25 -9 14 0 25 5 25 10 0 6 7 10 15 10
8 0 31 9 50 20 20 11 40 18 45 15 4 -2 13 2 20 10 7 8 19 15 26 15 8 0 14 5
14 10 0 6 7 10 15 10 15 0 25 4 72 28 13 7 30 12 38 12 8 0 15 5 15 10 0 6 11
10 25 10 14 0 25 5 25 10 0 6 9 10 20 10 11 0 20 5 20 10 0 6 11 10 25 10 14
0 25 5 25 10 0 6 7 10 15 10 8 0 23 4 33 9 45 23 69 32 89 34 12 0 19 5 17 9
-3 4 6 8 20 8 14 0 26 5 26 10 0 6 11 10 25 10 14 0 25 5 25 11 0 7 10 9 24 7
15 -3 27 0 30 8 3 8 17 14 31 14 14 0 25 5 25 10 0 6 14 10 30 10 17 0 30 5
30 10 0 6 11 10 24 10 14 0 28 5 31 10 3 6 17 10 30 10 13 0 27 5 30 10 3 6
19 10 35 10 16 0 32 5 35 10 3 6 17 10 30 10 13 0 26 4 29 9 6 8 31 14 119 27
20 4 37 10 37 14 0 4 15 10 33 13 17 4 48 9 67 12 19 4 44 10 55 15 20 9 60
16 145 26 25 3 49 10 54 15 6 5 27 9 48 9 45 0 50 18 14 46 -14 10 -23 21 -20
26 3 4 -2 8 -10 8 -9 0 -16 5 -16 10 0 6 -6 10 -13 10 -7 0 -23 9 -35 20 -12
11 -28 20 -37 20 -8 0 -15 5 -15 10 0 6 -9 10 -20 10 -11 0 -28 4 -38 9 -43
22 -125 31 -280 31 -92 0 -174 -5 -182 -10z"/>
<path d="M644 2738 c-4 -5 -8 -34 -11 -63 -6 -64 17 -148 53 -191 72 -84 110
-124 122 -124 6 0 12 -4 12 -10 0 -5 5 -10 11 -10 6 0 31 -15 57 -32 26 -18
50 -32 55 -30 4 1 7 -2 7 -6 0 -5 16 -14 35 -22 19 -8 35 -17 35 -22 0 -4 9
-8 19 -8 11 0 23 -4 26 -10 3 -5 15 -10 26 -10 10 0 19 -4 19 -10 0 -5 10 -10
23 -10 13 0 27 -4 33 -8 5 -5 29 -14 54 -21 25 -7 54 -17 65 -21 21 -9 60 -18
113 -27 18 -3 35 -9 38 -14 3 -5 27 -9 55 -9 27 0 49 -4 49 -9 0 -23 465 -33
590 -13 41 7 93 15 115 18 22 4 44 10 49 15 6 5 23 9 38 9 15 0 28 5 28 10 0
6 14 10 31 10 24 0 30 3 25 16 -3 9 -6 18 -6 20 0 2 -9 4 -19 4 -11 0 -23 5
-26 10 -3 6 -15 10 -26 10 -10 0 -19 5 -19 10 0 6 -7 10 -15 10 -8 0 -30 9
-50 20 -20 11 -42 20 -50 20 -8 0 -15 5 -15 10 0 6 -7 10 -15 10 -12 0 -115
43 -167 71 -10 5 -25 9 -33 9 -8 0 -15 5 -15 10 0 6 -11 10 -25 10 -14 0 -25
5 -25 10 0 6 -11 10 -25 10 -14 0 -25 5 -25 10 0 6 -9 10 -19 10 -11 0 -23 5
-26 10 -3 6 -17 10 -31 10 -13 0 -24 5 -24 10 0 6 -9 10 -20 10 -11 0 -28 4
-38 9 -9 5 -30 14 -47 21 -16 7 -38 16 -47 21 -10 5 -27 9 -37 9 -11 0 -23 5
-26 10 -3 6 -17 10 -31 10 -13 0 -24 5 -24 10 0 6 -13 10 -30 10 -16 0 -30 5
-30 10 0 6 -13 10 -30 10 -16 0 -30 5 -30 10 0 6 -11 10 -25 10 -14 0 -25 4
-25 8 0 4 -15 9 -32 10 -18 2 -37 7 -42 12 -6 6 -22 10 -37 10 -15 0 -31 5
-34 10 -3 6 -19 10 -36 10 -16 0 -29 5 -29 10 0 6 -16 10 -35 10 -19 0 -43 4
-53 9 -22 12 -191 51 -218 51 -11 0 -24 4 -30 9 -13 12 -124 20 -130 9z"/>
<path d="M4390 2742 c-19 -1 -44 -7 -55 -12 -19 -8 -53 -16 -125 -26 -19 -3
-44 -9 -55 -14 -23 -10 -65 -20 -117 -27 -21 -3 -38 -9 -38 -14 0 -5 -13 -9
-29 -9 -17 0 -33 -4 -36 -10 -3 -5 -16 -10 -27 -10 -26 0 -82 -17 -161 -49
-15 -6 -37 -11 -47 -11 -11 0 -20 -4 -20 -10 0 -5 -13 -10 -30 -10 -16 0 -30
-4 -30 -10 0 -5 -14 -10 -31 -10 -17 0 -28 -4 -24 -10 3 -6 -5 -10 -19 -10
-14 0 -28 -4 -31 -10 -3 -5 -15 -10 -26 -10 -10 0 -27 -4 -37 -9 -9 -5 -30
-14 -47 -21 -16 -7 -38 -16 -47 -21 -10 -5 -27 -9 -38 -9 -11 0 -20 -4 -20
-10 0 -5 -11 -10 -24 -10 -14 0 -28 -4 -31 -10 -3 -5 -15 -10 -26 -10 -10 0
-19 -4 -19 -10 0 -5 -9 -10 -19 -10 -11 0 -23 -4 -26 -10 -3 -5 -17 -10 -31
-10 -14 0 -22 -4 -19 -10 4 -6 -5 -10 -19 -10 -14 0 -26 -4 -26 -10 0 -5 -11
-10 -25 -10 -14 0 -25 -4 -25 -10 0 -5 -9 -10 -19 -10 -11 0 -23 -4 -26 -10
-3 -5 -15 -10 -26 -10 -10 0 -19 -4 -19 -10 0 -5 -7 -10 -15 -10 -8 0 -30 -9
-50 -20 -20 -11 -42 -20 -50 -20 -8 0 -15 -4 -15 -10 0 -5 -6 -10 -13 -10 -8
0 -28 -7 -45 -16 -18 -8 -37 -12 -43 -8 -8 4 -8 0 0 -15 7 -13 21 -21 36 -21
14 0 25 -4 25 -9 0 -5 15 -11 33 -14 17 -3 52 -11 77 -17 97 -24 203 -34 380
-35 102 -1 187 1 190 6 3 4 34 8 70 10 36 1 67 6 70 10 3 4 27 9 53 10 27 2
50 6 53 11 3 4 18 8 35 8 16 0 37 4 47 9 29 15 87 31 110 31 12 0 22 5 22 10
0 6 11 10 24 10 14 0 28 5 31 10 3 6 15 10 25 10 11 0 35 9 55 20 20 11 42 20
50 20 8 0 15 5 15 10 0 6 9 10 20 10 11 0 20 5 20 10 0 6 5 10 11 10 6 0 30
14 54 30 24 17 46 30 50 30 3 0 15 9 27 20 12 11 30 20 40 20 10 0 17 3 15 8
-1 4 20 28 46 55 27 26 46 47 43 47 -3 0 2 9 11 20 61 71 73 263 16 257 -10
-1 -34 -3 -53 -5z"/>
<path d="M1768 1473 c-35 -57 -160 -173 -187 -173 -6 0 -11 -4 -11 -10 0 -5
-7 -10 -15 -10 -8 0 -15 -4 -15 -10 0 -5 -9 -10 -20 -10 -11 0 -20 -3 -20 -8
0 -4 -15 -13 -32 -20 -18 -8 -44 -18 -58 -24 -56 -24 -69 -27 -194 -59 -62
-16 -343 -16 -359 0 -6 6 -28 11 -49 11 -21 0 -38 5 -38 10 0 6 -13 10 -29 10
-17 0 -33 5 -36 10 -3 6 -15 10 -25 10 -11 0 -36 9 -56 20 -20 12 -39 18 -43
15 -3 -4 -6 -52 -6 -108 -1 -101 7 -127 36 -127 13 0 67 -16 104 -31 20 -8 39
-12 155 -31 78 -12 270 -17 276 -6 3 4 24 8 46 8 22 0 59 5 82 11 22 6 59 15
81 21 22 5 48 14 57 19 10 5 25 9 33 9 15 0 25 4 72 28 13 7 29 12 37 12 8 0
16 3 18 8 3 6 55 36 115 66 13 6 23 14 23 19 0 4 5 7 10 7 6 0 24 13 41 30 30
28 33 29 48 12 9 -9 28 -23 44 -31 15 -8 27 -18 27 -23 0 -4 7 -8 15 -8 8 0
15 -3 15 -8 0 -4 25 -18 55 -32 30 -14 55 -28 55 -32 0 -5 7 -8 15 -8 8 0 23
-4 33 -9 30 -15 66 -29 107 -42 22 -6 49 -15 60 -19 23 -9 107 -26 180 -37
105 -15 300 -2 415 27 25 6 57 14 73 17 15 3 30 9 33 14 3 5 14 9 25 9 10 0
27 4 37 9 9 5 49 24 87 42 71 33 174 98 209 131 18 16 20 17 35 0 9 -9 28 -23
44 -31 15 -8 27 -18 27 -23 0 -4 7 -8 15 -8 8 0 15 -4 15 -10 0 -5 6 -10 13
-10 6 0 23 -9 37 -20 14 -11 33 -20 43 -20 10 0 15 -4 12 -10 -3 -5 3 -10 15
-10 11 0 28 -4 38 -9 9 -5 31 -14 47 -21 17 -7 38 -16 47 -21 10 -5 27 -9 38
-9 11 0 28 -4 38 -9 28 -14 110 -31 152 -31 22 0 40 -4 40 -8 0 -9 184 -8 260
2 82 10 211 41 242 57 10 5 26 9 37 9 35 0 44 26 46 136 1 92 -1 104 -17 104
-9 0 -20 -4 -23 -10 -3 -5 -15 -10 -26 -10 -10 0 -19 -4 -19 -10 0 -5 -9 -10
-19 -10 -11 0 -23 -4 -26 -10 -3 -5 -17 -10 -31 -10 -13 0 -32 -4 -42 -9 -63
-33 -390 -49 -440 -22 -11 6 -32 11 -46 11 -15 0 -34 4 -44 9 -9 5 -38 15 -64
23 -27 7 -48 16 -48 20 0 4 -9 8 -19 8 -11 0 -23 5 -26 10 -3 6 -15 10 -25 10
-10 0 -20 3 -22 8 -1 4 -23 18 -48 32 -25 13 -54 32 -64 42 -11 10 -23 18 -28
18 -4 0 -8 7 -8 16 0 8 -4 13 -9 10 -11 -7 -96 84 -105 112 -10 31 -27 27 -53
-11 -40 -57 -133 -147 -153 -147 -6 0 -10 -4 -10 -8 0 -5 -12 -15 -27 -23 -16
-8 -30 -16 -33 -19 -12 -12 -51 -30 -65 -30 -8 0 -15 -4 -15 -10 0 -5 -9 -10
-19 -10 -11 0 -23 -4 -26 -10 -3 -5 -17 -10 -31 -10 -13 0 -24 -4 -24 -9 0 -5
-12 -11 -27 -14 -16 -3 -48 -11 -73 -17 -147 -36 -414 -30 -492 11 -10 5 -25
9 -33 9 -24 0 -197 79 -203 93 -2 4 -8 7 -14 7 -34 0 -209 157 -223 200 -9 28
-28 25 -47 -7z"/>
<path d="M1776 1075 c-8 -8 -19 -15 -24 -15 -6 0 -12 -4 -14 -8 -4 -11 -94
-72 -106 -72 -6 0 -12 -3 -14 -7 -4 -11 -87 -53 -104 -53 -8 0 -14 -4 -14 -10
0 -5 -7 -10 -15 -10 -8 0 -24 -4 -35 -10 -11 -5 -29 -14 -40 -20 -11 -5 -29
-10 -40 -10 -11 0 -28 -4 -38 -9 -37 -19 -220 -46 -307 -45 -94 1 -262 28
-300 48 -11 5 -27 9 -37 8 -9 -2 -19 2 -23 8 -3 5 -17 10 -31 10 -13 0 -24 5
-24 11 0 6 -8 9 -17 7 -16 -3 -18 -17 -19 -106 -1 -88 1 -104 16 -112 31 -17
153 -53 225 -67 59 -11 392 -8 450 5 139 30 207 52 287 93 10 5 25 9 33 9 8 0
15 5 15 10 0 6 9 10 20 10 11 0 20 5 20 10 0 6 5 10 10 10 6 0 40 20 77 44 59
40 93 49 93 25 0 -5 5 -9 11 -9 6 0 30 -13 54 -30 24 -16 48 -30 53 -30 6 0
12 -3 14 -7 9 -22 240 -113 286 -113 11 0 24 -4 27 -10 3 -5 24 -10 45 -10 21
0 41 -4 45 -10 7 -11 395 -12 395 -1 0 5 19 11 43 15 81 10 117 18 123 27 3 5
16 9 29 9 13 0 27 5 30 10 3 6 17 10 31 10 13 0 24 5 24 10 0 6 6 10 14 10 12
0 135 59 146 70 3 3 17 11 32 19 15 8 37 23 48 33 11 11 25 16 32 12 7 -4 8
-3 4 4 -10 17 10 15 28 -3 8 -8 19 -15 25 -15 6 0 11 -4 11 -10 0 -5 7 -10 15
-10 8 0 15 -3 15 -8 0 -4 15 -13 33 -21 17 -8 34 -17 37 -21 5 -7 96 -50 105
-50 3 0 24 -8 48 -18 62 -28 112 -41 257 -72 64 -13 348 -8 425 8 111 23 225
61 226 76 1 6 2 55 3 109 1 82 -1 97 -14 97 -9 0 -20 -4 -26 -8 -5 -5 -29 -14
-54 -21 -25 -7 -54 -17 -65 -21 -53 -20 -220 -44 -305 -44 -90 1 -276 29 -294
46 -6 4 -22 8 -37 8 -15 0 -31 4 -34 10 -3 5 -14 10 -24 10 -9 0 -35 8 -57 19
-21 10 -54 24 -71 32 -18 8 -33 16 -33 20 0 3 -16 11 -35 19 -19 8 -35 17 -35
22 0 4 -7 8 -15 8 -8 0 -15 5 -15 10 0 6 -7 10 -16 10 -10 0 -14 6 -11 14 4 9
1 13 -6 10 -7 -2 -22 5 -34 16 -27 25 -53 26 -79 2 -30 -28 -111 -82 -123 -82
-6 0 -11 -3 -11 -7 0 -9 -49 -33 -67 -33 -7 0 -13 -3 -13 -7 0 -11 -50 -33
-72 -33 -10 0 -18 -4 -18 -10 0 -5 -11 -10 -25 -10 -14 0 -25 -4 -25 -10 0 -5
-11 -10 -25 -10 -14 0 -33 -4 -43 -9 -38 -20 -203 -44 -297 -44 -64 1 -209 15
-220 22 -5 4 -26 8 -45 10 -19 2 -36 7 -38 12 -2 5 -17 9 -32 9 -16 0 -32 5
-35 10 -3 6 -17 10 -31 10 -13 0 -24 5 -24 10 0 6 -11 10 -25 10 -14 0 -25 5
-25 10 0 6 -6 10 -13 10 -18 0 -67 24 -67 33 0 4 -7 7 -15 7 -8 0 -15 5 -15
10 0 6 -9 10 -20 10 -11 0 -20 5 -20 10 0 6 -7 10 -15 10 -8 0 -15 5 -15 10 0
6 -6 10 -13 10 -7 0 -19 9 -27 20 -8 11 -20 20 -27 20 -7 0 -13 4 -13 9 0 17
-29 20 -44 6z"/>
<path d="M1770 730 c0 -5 -5 -10 -10 -10 -6 0 -24 -13 -42 -30 -17 -16 -37
-30 -44 -30 -8 0 -14 -5 -14 -11 0 -6 -6 -9 -13 -6 -7 3 -23 -6 -36 -19 -13
-13 -32 -24 -42 -24 -10 0 -19 -4 -19 -10 0 -5 -9 -10 -19 -10 -11 0 -23 -4
-26 -10 -3 -5 -15 -10 -26 -10 -10 0 -19 -4 -19 -8 0 -4 -21 -13 -47 -20 -27
-8 -56 -18 -65 -23 -10 -5 -30 -9 -46 -9 -15 0 -32 -4 -38 -9 -37 -35 -492
-28 -470 8 3 4 -6 6 -19 3 -14 -2 -43 3 -65 12 -22 9 -42 16 -45 16 -10 1 -41
12 -58 21 -10 5 -21 8 -25 5 -4 -2 -7 -44 -7 -93 1 -48 -2 -101 -6 -116 -7
-25 -6 -27 7 -16 11 9 18 9 26 1 7 -7 22 -12 34 -12 13 0 25 -4 28 -9 6 -8 31
-14 119 -27 20 -4 37 -9 37 -14 0 -4 33 -8 73 -10 39 -1 95 -3 122 -4 63 -3
205 10 270 24 28 6 64 14 80 17 17 3 35 9 41 14 6 5 23 10 38 11 14 1 26 5 26
9 0 4 20 13 45 20 25 7 45 17 45 21 0 4 9 8 20 8 11 0 20 5 20 10 0 6 8 10 18
10 9 0 28 9 42 20 14 11 30 20 37 20 6 0 13 4 15 8 6 14 66 52 82 52 9 0 26
-9 38 -20 12 -11 28 -20 35 -20 7 0 13 -4 13 -10 0 -5 6 -10 14 -10 8 0 16 -3
18 -8 2 -4 35 -22 73 -41 78 -37 125 -57 180 -76 46 -16 128 -35 148 -35 13 0
28 -5 34 -11 12 -12 349 -15 393 -4 26 7 93 22 145 32 17 3 35 9 40 12 6 4 30
13 55 21 25 7 49 17 55 22 5 4 17 8 27 8 10 0 18 5 18 10 0 6 9 10 19 10 11 0
21 3 23 8 2 4 26 18 53 32 28 14 58 32 67 40 9 8 30 23 46 32 29 17 30 17 58
-7 16 -14 35 -25 42 -25 6 0 12 -4 12 -10 0 -5 7 -10 15 -10 8 0 15 -4 15 -8
0 -5 16 -14 35 -22 19 -8 35 -17 35 -21 0 -4 20 -13 45 -20 25 -7 45 -17 45
-21 0 -4 11 -8 24 -8 14 0 27 -4 30 -9 3 -5 16 -11 28 -14 13 -3 41 -10 63
-16 133 -36 196 -43 350 -43 89 0 172 5 188 11 16 6 42 11 58 11 16 0 37 4 47
9 9 5 49 19 87 31 l71 22 -2 107 c-1 89 -4 107 -18 109 -9 2 -16 -1 -16 -7 0
-6 -11 -11 -24 -11 -14 0 -27 -4 -30 -9 -3 -5 -18 -11 -33 -14 -16 -2 -53 -11
-83 -20 -75 -20 -169 -31 -265 -30 -96 0 -204 12 -227 24 -9 5 -30 9 -47 9
-30 0 -51 15 -30 22 6 2 -7 4 -28 4 -21 0 -56 8 -78 18 -93 42 -170 81 -173
88 -2 5 -10 8 -18 8 -8 0 -14 3 -14 8 0 4 -12 13 -27 19 -16 7 -44 26 -63 43
-19 16 -38 30 -42 30 -4 0 -55 -31 -112 -70 -58 -38 -112 -70 -120 -70 -9 0
-16 -4 -16 -8 0 -5 -19 -15 -42 -22 -24 -8 -45 -17 -48 -20 -3 -3 -25 -12 -50
-19 -25 -7 -53 -17 -62 -22 -10 -5 -31 -9 -47 -9 -17 0 -32 -4 -35 -9 -7 -11
-138 -24 -246 -24 -88 0 -160 7 -220 23 -84 21 -127 33 -150 42 -14 6 -34 14
-45 18 -61 23 -225 111 -225 122 0 4 -7 8 -15 8 -8 0 -15 5 -15 10 0 6 -6 10
-13 10 -7 0 -19 9 -27 20 -15 20 -60 28 -60 10z"/>
</g>
</svg>
